<svg x="432" y="480" viewBox="0 0 24 24" fit="" height="100%" width="100%" preserveAspectRatio="xMidYMid meet" focusable="false">
            <path fill="none" stroke-linejoin="round" stroke-linecap="round" stroke-width="2" stroke="currentColor" d="M23 3c-.9.642-1.943 1.164-3.063 1.509l-.077.021A4.48 4.48 0 0012 7.47v.063-.003 1a10.646 10.646 0 01-8.977-4.496l-.022-.033s-4 9 5 13A11.54 11.54 0 01.978 19l.023.001c9 5 20 0 20-11.5a4.5 4.5 0 00-.085-.859l.005.029a7.717 7.717 0 002.069-3.617l.011-.053z"></path>
        </svg>